<?xml version="1.0" encoding="utf-8"?>
<!-- Generator: Adobe Illustrator 22.1.0, SVG Export Plug-In . SVG Version: 6.00 Build 0)  -->
<svg version="1.1" id="レイヤー_1" xmlns="http://www.w3.org/2000/svg" xmlns:xlink="http://www.w3.org/1999/xlink" x="0px"
	 y="0px" viewBox="0 0 469 209.9" style="enable-background:new 0 0 469 209.9;" xml:space="preserve">
<style type="text/css">
	.st0{fill:#FCFAFA;}
</style>
<g>
	<path class="st0" d="M219.3,70.2c-5.5,13.3-15.9,24-29,29.9c-0.2,1.6-0.3,3.2-0.3,4.8c0,24.5,20,44.5,44.5,44.5
		s44.5-19.9,44.5-44.5c0-4.4-0.7-8.6-1.8-12.6c-4,0.9-8.2,1.4-12.5,1.4C245.8,93.8,229.3,84.5,219.3,70.2z M217.8,117.4
		c-3.8,0-7-3.1-7-7s3.1-7,7-7s7,3.1,7,7S221.6,117.4,217.8,117.4z M251.1,117.4c-3.8,0-7-3.1-7-7s3.1-7,7-7s7,3.1,7,7
		S254.9,117.4,251.1,117.4z"/>
	<path class="st0" d="M299.7,87.3c-6-31-32.9-54.3-65.2-54.3c-25.6,0-47.9,14.7-59,36.3c-26.7,2.9-47.5,25.8-47.5,53.6
		c0,29.8,23.9,54,53.3,54h115.4c24.5,0,44.4-20.1,44.4-45C341,108.2,322.8,88.9,299.7,87.3z M234.4,160.6
		c-30.7,0-55.7-24.9-55.7-55.7s24.9-55.7,55.7-55.7s55.7,24.9,55.7,55.7S265.2,160.6,234.4,160.6z"/>
</g>
</svg>
